<svg xmlns="http://www.w3.org/2000/svg" viewBox="0 0 32 32" width="32" height="32">
  <rect width="32" height="32" rx="7" fill="#F97316" />
  <path d="M16 7a9 9 0 0 0-2.85 17.54c.45.08.62-.2.62-.43v-1.5c-2.5.54-3.03-1.2-3.03-1.2-.41-1.04-1-1.32-1-1.32-.82-.56.06-.55.06-.55.9.06 1.38.93 1.38.93.8 1.37 2.1.98 2.62.75.08-.58.31-.98.57-1.2-2-.23-4.1-1-4.1-4.45 0-.98.35-1.78.93-2.41-.1-.23-.4-1.15.08-2.4 0 0 .76-.24 2.5.92a8.6 8.6 0 0 1 4.55 0c1.73-1.16 2.49-.92 2.49-.92.48 1.25.18 2.17.09 2.4.58.63.92 1.43.92 2.41 0 3.46-2.1 4.22-4.11 4.44.32.28.61.83.61 1.67v2.47c0 .24.16.52.62.43A9 9 0 0 0 16 7Z" fill="#fff" />
</svg>
